#!OML:ASF F:\VICON\USERDATA\INSTALL\rory3\rory3.ASF
:FULLY-SPECIFIED
:DEGREES
792
root 1.17185 16.8879 -3.54331 35.5867 -50.6859 -13.5306
lowerback -12.9823 0.369328 -1.69687
upperback -8.37628 0.395274 3.92731
thorax -1.58489 0.253022 5.12229
lowerneck -13.0968 -3.36635 -2.31886
upperneck 23.1943 -6.75493 9.03979
head 9.92913 -2.44639 2.68968
rclavicle -2.93021e-014 -9.54166e-015
rhumerus -48.598 -34.0652 -46.314
rradius 31.0309
rwrist -11.1419
rhand -1.25236 12.5424
rfingers 7.12502
rthumb 24.3903 -15.9253
lclavicle -2.93021e-014 -9.54166e-015
lhumerus -28.9475 11.0488 65.6665
lradius 55.1189
lwrist 9.32847
lhand -6.42266 20.9374
lfingers 7.12502
lthumb 19.426 49.9871
rfemur 155.051 -191.412 -160.472
rtibia 40.7311
rfoot -20.1573 -30.9866
rtoes 16.6001
lfemur -41.1557 -1.81381 -20.7143
ltibia 37.366
lfoot -73.8371 25.0399
ltoes 38.8616
793
root 1.14884 16.8881 -3.5416 35.654 -50.605 -13.495
lowerback -12.8525 0.331287 -1.75477
upperback -8.35488 0.352824 3.95039
thorax -1.62844 0.235767 5.17358
lowerneck -13.6193 -3.42237 -2.36821
upperneck 23.3947 -6.85128 9.07394
head 10.1122 -2.46915 2.69404
rclavicle -9.4578e-014 -2.97183e-014
rhumerus -48.9925 -34.2074 -46.1302
rradius 30.4511
rwrist -10.8355
rhand -1.34592 12.3559
rfingers 7.12502
rthumb 24.3006 -16.1239
lclavicle -9.4578e-014 -2.97183e-014
lhumerus -28.7595 10.4588 66.3308
lradius 54.4943
lwrist 9.00492
lhand -7.50559 20.6846
lfingers 7.12502
lthumb 18.3845 49.8359
rfemur 154.11 -191.59 -160.821
rtibia 40.8758
rfoot -23.7378 -30.305
rtoes 23.7236
lfemur -41.2226 -1.92631 -20.5919
ltibia 37.4143
lfoot -73.8763 25.0862
ltoes 38.8753
794
root 1.11847 16.8819 -3.52672 35.427 -50.7031 -13.3905
lowerback -12.6976 0.362841 -1.89308
upperback -8.2505 0.412104 4.00528
thorax -1.61004 0.272835 5.31564
lowerneck -13.7093 -3.51322 -2.70677
upperneck 23.3224 -6.91967 9.20388
head 10.1245 -2.51377 2.7868
rclavicle 4.31114e-015 -2.56432e-014
rhumerus -49.6231 -34.741 -45.3094
rradius 29.7475
rwrist -9.9639
rhand -0.692826 12.457
rfingers 7.12502
rthumb 24.9266 -15.9375
lclavicle 4.31114e-015 -2.56432e-014
lhumerus -28.726 9.76933 67.3
lradius 53.8709
lwrist 8.49248
lhand -8.20721 20.2724
lfingers 7.12502
lthumb 17.7094 49.4859
rfemur 153.418 -191.78 -161.257
rtibia 41.0638
rfoot -26.6419 -29.7496
rtoes 27.2655
lfemur -40.9235 -3.03301 -20.2033
ltibia 37.4332
lfoot -75.2481 24.7655
ltoes 39.5486
795
root 1.0982 16.8716 -3.51355 34.9093 -50.6545 -12.7355
lowerback -12.5351 0.157664 -2.26323
upperback -8.21798 0.178714 4.04799
thorax -1.64337 0.171846 5.5458
lowerneck -13.7747 -3.39727 -2.68194
upperneck 23.2587 -6.69732 9.00856
head 10.0889 -2.42847 2.74137
rclavicle 2.03164e-014 2.18663e-014
rhumerus -49.7817 -34.7535 -45.0006
rradius 29.0138
rwrist -9.77682
rhand -0.0133589 12.314
rfingers 7.12502
rthumb 25.5776 -15.9886
lclavicle 2.03164e-014 2.18663e-014
lhumerus -29.1119 9.74968 68.1093
lradius 53.6929
lwrist 7.90205
lhand -8.19005 20.2843
lfingers 7.12502
lthumb 17.726 49.4964
rfemur 152.479 -191.41 -161.941
rtibia 41.2783
rfoot -26.4566 -31.0098
rtoes 26.016
lfemur -40.8632 -3.19658 -20.5695
ltibia 37.4339
lfoot -75.3334 23.8008
ltoes 40.2419
796
root 1.08672 16.8621 -3.50874 34.7181 -50.2095 -12.4863
lowerback -12.2264 -0.0860296 -2.13217
upperback -8.1843 -0.15572 4.0886
thorax -1.73388 0.00100742 5.47526
lowerneck -13.9038 -3.20454 -2.34537
upperneck 23.1389 -6.43555 8.80238
head 10.0345 -2.29878 2.64262
rclavicle -3.95613e-014 -1.11319e-014
rhumerus -49.7757 -34.7857 -45.0017
rradius 28.1977
rwrist -9.51254
rhand 0.0267467 11.9676
rfingers 7.12502
rthumb 25.616 -16.3295
lclavicle -3.95613e-014 -1.11319e-014
lhumerus -29.3668 9.63083 68.7297
lradius 53.5337
lwrist 7.48166
lhand -7.81822 20.7594
lfingers 7.12502
lthumb 18.0837 49.9388
rfemur 151.514 -190.839 -162.144
rtibia 41.4598
rfoot -27.0261 -31.7433
rtoes 25.297
lfemur -40.9184 -2.06315 -21.1423
ltibia 37.4826
lfoot -73.6835 23.562
ltoes 39.8912
797
root 1.07213 16.8581 -3.50767 34.4678 -49.9462 -12.2886
lowerback -11.7784 -0.130378 -2.13131
upperback -8.145 -0.209531 4.07155
thorax -1.92697 -0.020747 5.44922
lowerneck -13.6662 -3.25614 -2.53716
upperneck 22.8203 -6.49741 9.07313
head 9.89545 -2.32899 2.76084
rclavicle -1.11413e-014 5.06901e-015
rhumerus -50.2425 -35.1831 -44.6033
rradius 27.527
rwrist -9.06262
rhand -0.53406 11.6698
rfingers 7.12502
rthumb 25.0787 -16.7035
lclavicle -1.11413e-014 5.06901e-015
lhumerus -29.3503 9.10588 69.6121
lradius 53.0043
lwrist 7.16932
lhand -7.09025 20.7718
lfingers 7.12502
lthumb 18.784 49.8848
rfemur 150.737 -190.757 -162.476
rtibia 41.5274
rfoot -29.6634 -30.9538
rtoes 28.5586
lfemur -40.8408 -1.37461 -21.4995
ltibia 37.6171
lfoot -72.5259 24.435
ltoes 39.079
798
root 1.04793 16.849 -3.4884 34.7644 -50.0701 -12.2861
lowerback -11.9437 -0.0722334 -2.15287
upperback -8.23519 -0.133567 4.11222
thorax -1.94307 0.0191857 5.51413
lowerneck -13.9787 -3.37978 -2.85756
upperneck 22.9553 -6.66025 9.27846
head 10.0337 -2.39616 2.86535
rclavicle 2.63483e-014 -7.10655e-015
rhumerus -50.7448 -35.2976 -44.1275
rradius 26.8828
rwrist -8.74861
rhand -0.585976 11.4846
rfingers 7.12502
rthumb 25.029 -16.8956
lclavicle 2.63483e-014 -7.10655e-015
lhumerus -29.5701 8.55559 70.559
lradius 52.4115
lwrist 6.76239
lhand -6.44491 20.8381
lfingers 7.12502
lthumb 19.4046 49.8899
rfemur 149.424 -190.626 -163.008
rtibia 41.6721
rfoot -30.1452 -32.2319
rtoes 28.9776
lfemur -41.0994 -1.53455 -21.4454
ltibia 37.6683
lfoot -72.6454 25.3158
ltoes 38.5401
799
root 0.982394 16.7757 -3.33853 32.3684 -51.5621 -13.2461
lowerback -10.6149 0.56275 -0.730983
upperback -6.79384 0.618585 3.75563
thorax -1.18751 0.329949 4.37872
lowerneck -14.2222 -3.25564 -2.64508
upperneck 22.8639 -6.52892 9.29888
head 10.0333 -2.30891 2.84997
rclavicle -7.69514e-014 7.95139e-015
rhumerus -51.1841 -36.0418 -43.5154
rradius 25.9669
rwrist -7.4665
rhand 0.476035 11.7242
rfingers 7.12502
rthumb 26.0463 -16.5103
lclavicle -7.69514e-014 7.95139e-015
lhumerus -29.6161 8.23579 71.1638
lradius 51.9654
lwrist 5.86446
lhand -5.98207 21.1095
lfingers 7.12502
lthumb 19.8496 50.1159
rfemur 152.216 -190.26 -163.22
rtibia 41.7033
rfoot -28.7183 -31.8805
rtoes 26.937
lfemur -36.708 -8.1891 -19.9072
ltibia 37.7622
lfoot -82.1465 22.6523
ltoes 40.9992
800
root 1.00066 16.8229 -3.43928 33.8749 -49.8383 -11.4166
lowerback -11.9519 -0.301439 -1.97194
upperback -7.7735 -0.44351 3.81152
thorax -1.41142 -0.161486 5.0532
lowerneck -14.4959 -3.15125 -2.39283
upperneck 22.683 -6.42866 9.33288
head 10.0089 -2.2319 2.82697
rclavicle 2.25496e-014 -2.54444e-014
rhumerus -52.1184 -37.6997 -41.9847
rradius 24.9051
rwrist -4.78745
rhand 1.58294 12.2855
rfingers 7.12502
rthumb 27.1057 -15.7885
lclavicle 2.25496e-014 -2.54444e-014
lhumerus -29.4551 8.1191 71.8454
lradius 51.5188
lwrist 4.62349
lhand -5.44714 21.1416
lfingers 7.12502
lthumb 20.3637 50.0939
rfemur 147.853 -190.346 -164.139
rtibia 41.9066
rfoot -32.3801 -32.3617
rtoes 30.1234
lfemur -40.621 -2.65362 -21.6798
ltibia 37.7159
lfoot -73.2817 26.0124
ltoes 37.9405
801
root 0.981477 16.8154 -3.43211 33.6081 -49.5551 -11.0571
lowerback -11.779 -0.262224 -1.92269
upperback -7.7156 -0.390096 3.66069
thorax -1.44813 -0.137102 4.87035
lowerneck -14.4186 -3.29917 -2.40525
upperneck 22.4318 -6.63423 9.44705
head 9.9243 -2.32347 2.83868
rclavicle -7.20594e-015 1.19271e-015
rhumerus -52.3486 -37.4568 -42.4805
rradius 24.6549
rwrist -6.83945
rhand 0.380914 11.0245
rfingers 7.12502
rthumb 25.9552 -17.2233
lclavicle -7.20594e-015 1.19271e-015
lhumerus -29.3574 7.57326 72.8158
lradius 51.1409
lwrist 3.55794
lhand -4.89417 21.1766
lfingers 7.12502
lthumb 20.8951 50.0713
rfemur 146.853 -190.483 -164.605
rtibia 41.9992
rfoot -34.4419 -31.4451
rtoes 32.4512
lfemur -40.6251 -2.52823 -21.8883
ltibia 37.7507
lfoot -72.5574 26.7198
ltoes 37.0757
802
root 0.958424 16.8128 -3.42438 33.4498 -49.2604 -10.685
lowerback -11.6848 -0.254577 -1.95991
upperback -7.73504 -0.372978 3.53402
thorax -1.52094 -0.127062 4.75955
lowerneck -14.2432 -3.3954 -2.32405
upperneck 22.2419 -6.75613 9.40392
head 9.82751 -2.38758 2.79236
rclavicle -5.62312e-014 2.36554e-014
rhumerus -53.7651 -38.5028 -40.6966
rradius 23.7596
rwrist -4.62533
rhand 1.58474 11.3313
rfingers 7.12502
rthumb 27.1074 -16.7424
lclavicle -5.62312e-014 2.36554e-014
lhumerus -29.464 6.93561 73.8047
lradius 50.7149
lwrist 2.38501
lhand -4.42462 20.8727
lfingers 7.12502
lthumb 21.3462 49.717
rfemur 145.659 -190.452 -165.056
rtibia 42.1872
rfoot -36.4471 -30.7726
rtoes 34.3362
lfemur -40.7394 -2.16374 -22.1575
ltibia 37.7057
lfoot -71.4197 28.1382
ltoes 35.6081
803
root 0.931691 16.8132 -3.42486 33.3904 -49.1395 -10.2808
lowerback -11.6714 -0.448582 -2.23668
upperback -7.75847 -0.605183 3.49632
thorax -1.5302 -0.234471 4.8538
lowerneck -15.1752 -3.35416 -2.023
upperneck 22.5452 -6.80329 9.37969
head 10.1092 -2.34793 2.72069
rclavicle 6.17475e-014 -2.28602e-015
rhumerus -54.508 -39.4333 -39.6855
rradius 22.7862
rwrist -2.66352
rhand 1.4004 11.4103
rfingers 7.12502
rthumb 26.931 -16.6908
lclavicle 6.17475e-014 -2.28602e-015
lhumerus -29.9237 6.98298 74.5045
lradius 50.3209
lwrist 0.825558
lhand -3.94694 20.4723
lfingers 7.12502
lthumb 21.8049 49.2639
rfemur 144.361 -190.831 -165.741
rtibia 42.2904
rfoot -39.0863 -29.3886
rtoes 36.9048
lfemur -41.0477 -1.03763 -22.7426
ltibia 37.7468
lfoot -69.9799 28.2218
ltoes 35.2625
804
root 0.903308 16.8024 -3.4133 32.9821 -49.1935 -10.0476
lowerback -11.3807 -0.619709 -2.34407
upperback -7.51297 -0.817318 3.39187
thorax -1.40589 -0.341674 4.78111
lowerneck -15.4815 -3.18899 -1.68832
upperneck 22.5374 -6.68941 9.48807
head 10.1534 -2.24619 2.71479
rclavicle -1.15916e-014 4.37326e-015
rhumerus -54.5209 -39.9406 -39.8581
rradius 21.973
rwrist -2.0446
rhand 0.6002 11.1062
rfingers 7.12502
rthumb 26.1651 -17.1107
lclavicle -1.15916e-014 4.37326e-015
lhumerus -30.2195 7.55298 74.8964
lradius 49.8972
lwrist -1.22601
lhand -3.07841 20.1385
lfingers 7.12502
lthumb 22.6387 48.8308
rfemur 143.603 -190.963 -166.276
rtibia 42.3897
rfoot -40.0555 -30.1805
rtoes 38.8936
lfemur -40.7231 -0.610031 -23.0731
ltibia 37.7766
lfoot -69.9119 27.2285
ltoes 36.1183
805
root 0.878312 16.7936 -3.40527 32.7123 -49.0871 -9.63866
lowerback -11.1668 -0.54017 -2.6419
upperback -7.59592 -0.68584 3.42285
thorax -1.62237 -0.257803 4.99954
lowerneck -15.206 -3.39492 -2.05922
upperneck 22.3205 -6.86039 9.52
head 10.0461 -2.36635 2.76508
rclavicle 5.95733e-014 -1.0138e-014
rhumerus -55.1201 -39.7472 -39.2921
rradius 21.4695
rwrist -2.55653
rhand 0.493333 10.7376
rfingers 7.12502
rthumb 26.0628 -17.4944
lclavicle 5.95733e-014 -1.0138e-014
lhumerus -30.4697 7.28632 76.2154
lradius 49.0734
lwrist -3.13056
lhand -2.94034 19.4168
lfingers 7.12502
lthumb 22.7712 48.0928
rfemur 142.456 -190.753 -166.818
rtibia 42.5165
rfoot -40.5598 -30.2189
rtoes 40.5731
lfemur -40.6874 -0.577293 -23.2962
ltibia 37.775
lfoot -69.9595 26.4351
ltoes 36.6255
